<svg width="1280" height="647" fill="none" xmlns="http://www.w3.org/2000/svg"><g clip-path="url(#a)"><g filter="url(#b)"><path d="M646.877 67.843a4.5 4.5 0 0 0 6.364 6.364L717.587 9.86a4.5 4.5 0 0 0-6.364-6.364l-64.346 64.347Z" fill="url(#c)"/><path d="M663.14 83.4a4.5 4.5 0 0 1 0-6.365l73.539-73.539a4.5 4.5 0 0 1 6.364 6.364L669.504 83.4a4.5 4.5 0 0 1-6.364 0Z" fill="url(#d)"/><path d="M3.41 76.328a4.5 4.5 0 1 0 6.363 6.364L82.605 9.86a4.5 4.5 0 1 0-6.364-6.364L3.41 76.328Z" fill="url(#e)"/><path d="M133.517 3.496a4.5 4.5 0 0 0-6.364 0L3.409 127.24a4.5 4.5 0 0 0 6.364 6.364L133.517 9.86a4.5 4.5 0 0 0 0-6.364Z" fill="url(#f)"/><path d="M45.836 8.446A4.5 4.5 0 1 0 52.2 14.81l4.95-4.95a4.5 4.5 0 1 0-6.364-6.364l-4.95 4.95Z" fill="url(#g)"/><path d="M25.33 3.496a4.5 4.5 0 0 1 6.364 6.364L9.774 31.78a4.5 4.5 0 1 1-6.365-6.363l21.92-21.92Z" fill="url(#h)"/><path d="M3.41 178.152a4.5 4.5 0 0 0 6.363 6.364L119.375 74.914a4.5 4.5 0 0 0-6.364-6.364L3.409 178.152Z" fill="url(#i)"/><path d="M3.41 108.148a4.5 4.5 0 0 1 0-6.364l12.727-12.728a4.5 4.5 0 1 1 6.364 6.364L9.773 108.148a4.5 4.5 0 0 1-6.364 0Z" fill="url(#j)"/><path d="M108.061 3.496a4.5 4.5 0 0 0-6.364 0L28.865 76.328a4.5 4.5 0 0 0 6.364 6.364L108.061 9.86a4.499 4.499 0 0 0 0-6.364Z" fill="url(#k)"/><path d="M120.082 36.023a4.5 4.5 0 0 0 6.364 6.364L158.973 9.86a4.5 4.5 0 0 0-6.364-6.364l-32.527 32.527Z" fill="url(#l)"/><path d="M3.41 57.236a4.5 4.5 0 0 1 0-6.364l29.698-29.698a4.5 4.5 0 0 1 6.364 6.364L9.773 57.236a4.5 4.5 0 0 1-6.364 0Z" fill="url(#m)"/><path d="M184.429 3.496a4.5 4.5 0 0 1 0 6.364l-22.628 22.628a4.5 4.5 0 0 1-6.364-6.364l22.628-22.628a4.5 4.5 0 0 1 6.364 0Z" fill="url(#n)"/><path d="M125.739 62.186a4.5 4.5 0 0 1 0-6.364l16.971-16.97a4.499 4.499 0 1 1 6.363 6.364l-16.97 16.97a4.5 4.5 0 0 1-6.364 0Z" fill="url(#o)"/><path d="M65.635 166.838a4.5 4.5 0 0 1 6.364 6.364L9.773 235.427a4.5 4.5 0 0 1-6.364-6.364l62.226-62.225Z" fill="url(#p)"/><path d="M3.41 286.339a4.5 4.5 0 0 1 0-6.364L264.331 19.053a4.5 4.5 0 0 1 6.364 6.364L9.773 286.339a4.5 4.5 0 0 1-6.364 0Z" fill="url(#q)"/><path d="M279.888 3.496a4.5 4.5 0 0 1 6.364 6.364l-2.828 2.829a4.5 4.5 0 0 1-6.364-6.364l2.828-2.829Z" fill="url(#r)"/><path d="M3.41 260.883a4.5 4.5 0 0 1 0-6.364L45.128 212.8a4.5 4.5 0 0 1 6.364 6.364l-41.72 41.719a4.499 4.499 0 0 1-6.364 0Z" fill="url(#s)"/><path d="M189.379 68.55a4.5 4.5 0 0 1 6.364 6.364L64.221 206.436a4.5 4.5 0 0 1-6.364-6.364L189.379 68.55Z" fill="url(#t)"/><path d="M235.34 3.496a4.499 4.499 0 0 0-6.363 0L154.73 77.742a4.5 4.5 0 0 0 6.364 6.364L235.34 9.86a4.499 4.499 0 0 0 0-6.364Z" fill="url(#u)"/><path d="M202.106 55.822a4.5 4.5 0 0 0 6.364 6.364L260.796 9.86a4.5 4.5 0 0 0-6.364-6.364l-52.326 52.326Z" fill="url(#v)"/><path d="M295.445 70.671a4.499 4.499 0 0 1 0-6.364l60.811-60.81a4.5 4.5 0 0 1 6.364 6.363l-60.811 60.811a4.5 4.5 0 0 1-6.364 0Z" fill="url(#w)"/><path d="M3.41 381.798a4.5 4.5 0 0 0 6.363 6.364L388.076 9.86a4.5 4.5 0 0 0-6.364-6.364L3.409 381.798Z" fill="url(#x)"/><path d="M424.138 18.346a4.5 4.5 0 0 0-6.364 0L69.17 366.949a4.5 4.5 0 1 0 6.364 6.364L424.138 24.71a4.5 4.5 0 0 0 0-6.364Z" fill="url(#y)"/><path d="M3.41 407.254a4.5 4.5 0 0 0 6.363 6.364L71.292 352.1a4.5 4.5 0 1 0-6.364-6.364L3.409 407.254Z" fill="url(#z)"/><path d="M56.443 309.674a4.5 4.5 0 0 1 0-6.364l19.091-19.092a4.5 4.5 0 1 1 6.364 6.364l-19.092 19.092a4.5 4.5 0 0 1-6.363 0Z" fill="url(#A)"/><path d="M107.354 48.751a4.5 4.5 0 0 1 6.364 6.364L9.773 159.06a4.5 4.5 0 0 1-6.364-6.364L107.354 48.751Z" fill="url(#B)"/><path d="M3.41 362.707a4.5 4.5 0 0 1 0-6.364L17.551 342.2a4.5 4.5 0 0 1 6.364 6.364L9.773 362.707a4.5 4.5 0 0 1-6.364 0Z" fill="url(#C)"/><path d="M52.2 282.096a4.5 4.5 0 0 1 6.364 6.364l-48.79 48.791a4.5 4.5 0 0 1-6.365-6.364l48.79-48.791Z" fill="url(#D)"/><path d="M3.41 311.795a4.5 4.5 0 0 1 0-6.364l19.799-19.799a4.5 4.5 0 0 1 6.363 6.364L9.773 311.795a4.5 4.5 0 0 1-6.364 0Z" fill="url(#E)"/><path d="M438.987 3.496a4.499 4.499 0 0 1 0 6.364l-2.121 2.122a4.5 4.5 0 0 1-6.364-6.364l2.121-2.122a4.5 4.5 0 0 1 6.364 0Z" fill="url(#F)"/><path d="M3.41 439.074a4.5 4.5 0 0 1 0-6.364l53.033-53.033a4.5 4.5 0 0 1 6.363 6.364L9.773 439.074a4.5 4.5 0 0 1-6.364 0Z" fill="url(#G)"/><path d="M30.28 329.473a4.499 4.499 0 1 0 6.364 6.363l13.434-13.435a4.499 4.499 0 0 0 0-6.363 4.499 4.499 0 0 0-6.363 0l-13.436 13.435Z" fill="url(#H)"/><path d="M413.531 3.496a4.5 4.5 0 0 0-6.364 0L332.214 78.45a4.5 4.5 0 0 0 6.364 6.364L413.531 9.86a4.499 4.499 0 0 0 0-6.364Z" fill="url(#I)"/><path d="M23.916 437.66a4.5 4.5 0 1 1 6.364 6.364L9.772 464.53a4.5 4.5 0 0 1-6.364-6.364l20.507-20.506Z" fill="url(#J)"/><path d="M36.644 431.296a4.5 4.5 0 0 1 0-6.364l9.192-9.192a4.5 4.5 0 1 1 6.364 6.364l-9.193 9.192a4.5 4.5 0 0 1-6.363 0Z" fill="url(#K)"/><path d="M58.564 403.012a4.5 4.5 0 1 0 6.364 6.364L464.443 9.86a4.5 4.5 0 0 0-6.364-6.364L58.564 403.012Z" fill="url(#L)"/><path d="M540.811 3.496a4.5 4.5 0 0 0-6.364 0l-63.286 63.286a4.5 4.5 0 1 0 6.364 6.364L540.811 9.86a4.5 4.5 0 0 0 0-6.364Z" fill="url(#M)"/><path d="M521.719 67.136a4.5 4.5 0 0 0 6.364 6.364l63.639-63.64a4.5 4.5 0 0 0-6.364-6.364l-63.639 63.64Z" fill="url(#N)"/><path d="M33.108 638.478a4.5 4.5 0 0 1 0-6.364l26.163-26.163a4.5 4.5 0 0 1 6.364 6.364l-26.163 26.163a4.5 4.5 0 0 1-6.364 0Z" fill="url(#O)"/><path d="M171.347 568.828a4.5 4.5 0 0 1 6.364 6.364l-63.286 63.286a4.5 4.5 0 0 1-6.364-6.364l63.286-63.286Z" fill="url(#P)"/><path d="M680.111 15.517a4.499 4.499 0 0 1 0-6.364l5.657-5.657a4.5 4.5 0 0 1 6.364 6.364l-5.657 5.657a4.5 4.5 0 0 1-6.364 0Z" fill="url(#Q)"/><path d="M157.559 557.161a4.5 4.5 0 0 1 6.364 6.364l-74.954 74.953a4.5 4.5 0 0 1-6.363-6.364l74.953-74.953Z" fill="url(#R)"/><path d="M815.875 13.396a4.5 4.5 0 1 1-6.364-6.364l3.536-3.536a4.5 4.5 0 0 1 6.364 6.364l-3.536 3.536Z" fill="url(#S)"/><path d="M739.508 77.035a4.5 4.5 0 0 0 6.364 6.364l57.275-57.275a4.5 4.5 0 1 0-6.364-6.364l-57.275 57.275Z" fill="url(#T)"/><path d="M184.429 638.478a4.499 4.499 0 0 1 0-6.364l65.761-65.761a4.5 4.5 0 0 1 6.364 6.364l-65.761 65.761a4.499 4.499 0 0 1-6.364 0Z" fill="url(#U)"/><path d="M764.256 77.743a4.5 4.5 0 0 0 6.364 6.364l28.285-28.285a4.5 4.5 0 0 0-6.364-6.364l-28.285 28.285Z" fill="url(#V)"/><path d="M870.322 9.86a4.5 4.5 0 0 0-6.364-6.364L235.34 632.114a4.5 4.5 0 0 0 6.364 6.364L870.322 9.86Z" fill="url(#W)"/><path d="M805.269 36.73a4.499 4.499 0 1 0 6.363 6.364L844.867 9.86a4.5 4.5 0 0 0-6.364-6.364L805.269 36.73Z" fill="url(#X)"/><path d="M3.218 566.545a4.5 4.5 0 0 1 0-6.364l15.748-15.748a4.5 4.5 0 0 1 6.364 6.364L9.582 566.545a4.5 4.5 0 0 1-6.364 0Z" fill="url(#Y)"/><path d="M3.41 591.809a4.5 4.5 0 0 0 6.363 0l41.72-41.719a4.5 4.5 0 1 0-6.364-6.364l-41.72 41.719a4.5 4.5 0 0 0 0 6.364Z" fill="url(#Z)"/><path d="M38.765 537.362a4.5 4.5 0 1 0-6.364-6.364l-.707.707a4.5 4.5 0 0 0 6.364 6.364l.707-.707Z" fill="url(#aa)"/><path d="M475.757 43.094a4.5 4.5 0 0 1 0 6.364l-.707.707a4.5 4.5 0 1 1-6.364-6.364l.707-.707a4.5 4.5 0 0 1 6.364 0Z" fill="url(#ab)"/><path d="M515.355 3.496a4.5 4.5 0 0 0-6.364 0l-26.87 26.87a4.5 4.5 0 1 0 6.364 6.364l26.87-26.87a4.5 4.5 0 0 0 0-6.364Z" fill="url(#ac)"/><path d="M67.403 521.452a4.5 4.5 0 0 1 6.364 6.364l-9.546 9.546a4.5 4.5 0 0 1-6.364-6.364l9.546-9.546Z" fill="url(#ad)"/><path d="M264.332 584.031a4.5 4.5 0 0 1 0-6.364l11.314-11.314a4.5 4.5 0 0 1 6.364 6.364l-11.314 11.314a4.5 4.5 0 0 1-6.364 0Z" fill="url(#ae)"/><path d="M251.604 590.395a4.5 4.5 0 0 1 6.364 6.364l-41.719 41.719a4.499 4.499 0 0 1-6.364 0 4.499 4.499 0 0 1 0-6.364l41.719-41.719Z" fill="url(#af)"/><path d="M3.41 540.897a4.5 4.5 0 0 1 0-6.364l73.539-73.539a4.5 4.5 0 0 1 6.364 6.364l-73.54 73.539a4.499 4.499 0 0 1-6.364 0Z" fill="url(#ag)"/><path d="M661.726 3.496a4.5 4.5 0 0 1 6.364 6.364l-18.385 18.385a4.5 4.5 0 1 1-6.364-6.364l18.385-18.385Z" fill="url(#ah)"/><path d="M209.885 3.496a4.5 4.5 0 0 0-6.364 0L3.409 203.608a4.499 4.499 0 0 0 0 6.363 4.499 4.499 0 0 0 6.364 0L209.885 9.861a4.5 4.5 0 0 0 0-6.365Z" fill="url(#ai)"/><path d="M337.164 3.496a4.5 4.5 0 0 0-6.364 0L64.928 269.368a4.5 4.5 0 1 0 6.364 6.364L337.164 9.86a4.5 4.5 0 0 0 0-6.364Z" fill="url(#aj)"/><path d="M35.936 279.268a4.5 4.5 0 0 1 0-6.364L305.344 3.496a4.5 4.5 0 0 1 6.364 6.364L42.3 279.268a4.5 4.5 0 0 1-6.364 0Z" fill="url(#ak)"/><path d="M3.41 489.986a4.5 4.5 0 0 1 0-6.364L483.534 3.496a4.5 4.5 0 0 1 6.364 6.364L9.773 489.986a4.5 4.5 0 0 1-6.364 0Z" fill="url(#al)"/><path d="M3.41 509.078a4.5 4.5 0 0 0 6.363 6.364L462.322 62.893a4.5 4.5 0 0 0-6.364-6.364L3.409 509.078Z" fill="url(#am)"/><path d="M45.195 518.204a4.5 4.5 0 0 0 6.364 6.364L566.266 9.86a4.499 4.499 0 0 0 0-6.364 4.499 4.499 0 0 0-6.363 0L45.195 518.204Z" fill="url(#an)"/><path d="M9.773 617.265a4.5 4.5 0 0 1-6.364-6.364L610.814 3.496a4.5 4.5 0 0 1 6.364 6.364L9.773 617.265Z" fill="url(#ao)"/><path d="M636.27 3.496a4.5 4.5 0 0 1 6.364 6.364L14.016 638.478a4.5 4.5 0 0 1-6.364-6.364L636.27 3.496Z" fill="url(#ap)"/><path d="M71.999 599.587a4.5 4.5 0 0 1 0-6.364L630.613 34.609a4.5 4.5 0 0 1 6.364 6.364L78.363 599.587a4.499 4.499 0 0 1-6.364 0Z" fill="url(#aq)"/><path d="M57.15 638.478a4.5 4.5 0 0 0 6.364 0L673.747 28.245a4.5 4.5 0 0 0-6.364-6.364L57.15 632.114a4.5 4.5 0 0 0 0 6.364Z" fill="url(#ar)"/><path d="M762.135 3.496a4.5 4.5 0 0 1 6.364 6.364L139.881 638.478a4.5 4.5 0 0 1-6.364-6.364L762.135 3.496Z" fill="url(#as)"/><path d="M793.955 3.496a4.5 4.5 0 0 0-6.364 0L158.973 632.114a4.5 4.5 0 0 0 6.364 6.364L793.955 9.86a4.5 4.5 0 0 0 0-6.364Z" fill="url(#at)"/></g><g filter="url(#au)"><path d="M75 100c0-12.703 10.297-23 23-23h1084c12.7 0 23 10.297 23 23v440c0 12.703-10.3 23-23 23H98c-12.703 0-23-10.297-23-23V100Z" fill="#fff"/></g><g filter="url(#av)"><path d="m1138.97 595.838-8.3-11.814h-8.3l12.64 17.478 3.89-4.721a.818.818 0 0 0 .07-.943Z" fill="#747778"/></g><g filter="url(#aw)"><path d="M1142.89 602.488a.813.813 0 0 0 .04-1.001l-4.11-5.838c.18.296.15.675-.07.943l-13.39 16.249h8.87l8.66-10.353Z" fill="#747778"/></g><g filter="url(#ax)"><path d="m1104.7 606.214 8.3 11.814h8.3l-12.63-17.479-3.89 4.722a.837.837 0 0 0-.08.943Z" fill="#747778"/></g><g filter="url(#ay)"><path d="M1100.83 599.636a.812.812 0 0 0-.04 1l4.11 5.839a.82.82 0 0 1 .07-.944l13.39-16.249h-8.87l-8.66 10.354Z" fill="#747778"/></g><g filter="url(#az)" fill="#747778"><path d="M1143.74 617.353c0 .224-.08.423-.23.595a.75.75 0 0 1-.59.258c-.26 0-.46-.086-.61-.258a.875.875 0 0 1-.22-.595c0-.232.07-.434.22-.606s.35-.258.61-.258c.24 0 .44.086.59.258.15.172.23.374.23.606Z"/><path fill-rule="evenodd" clip-rule="evenodd" d="M1150.88 615.479c0 .396-.06.763-.16 1.099-.1.33-.24.614-.44.853-.19.24-.42.427-.69.562-.28.134-.6.202-.95.202-.27 0-.52-.034-.73-.101a1.609 1.609 0 0 1-.47-.225v2.054h-.93v-6.902c.2-.06.46-.12.77-.18.33-.06.69-.089 1.1-.089.38 0 .72.063 1.03.19.3.127.56.311.78.55.22.232.39.516.51.853.12.337.18.715.18 1.134Zm-.96 0c0-.606-.14-1.074-.42-1.403a1.405 1.405 0 0 0-1.12-.505c-.25 0-.45.011-.6.033-.14.023-.26.049-.34.079v3.288c.11.098.26.187.46.27.2.082.41.123.63.123.25 0 .46-.049.63-.146.18-.097.32-.228.44-.393.11-.172.19-.37.24-.594.06-.232.08-.483.08-.752Z"/><path d="M1152.53 618.071v-4.927a7.042 7.042 0 0 1 2.99-.359c.22.015.46.053.72.112l-.17.82a3.324 3.324 0 0 0-.64-.124 5.293 5.293 0 0 0-1.98.157v4.321h-.92Z"/><path fill-rule="evenodd" clip-rule="evenodd" d="M1162.1 615.467c0 .412-.06.786-.18 1.123-.11.329-.27.613-.48.853-.21.239-.46.426-.75.561-.29.127-.61.191-.96.191-.33 0-.65-.064-.94-.191a2.32 2.32 0 0 1-.74-.561c-.21-.24-.38-.524-.49-.853a3.33 3.33 0 0 1-.17-1.123c0-.411.05-.785.17-1.122.11-.337.28-.621.49-.853.21-.239.46-.423.74-.55.29-.134.61-.202.94-.202.35 0 .67.068.96.202.29.127.54.311.75.55.21.232.37.516.48.853.12.337.18.711.18 1.122Zm-.95 0c0-.591-.13-1.055-.38-1.391a1.23 1.23 0 0 0-1.04-.516c-.42 0-.76.172-1.02.516-.25.336-.37.8-.37 1.391 0 .584.12 1.048.37 1.392.26.337.6.505 1.02.505.44 0 .78-.168 1.04-.505.25-.344.38-.808.38-1.392Z"/><path d="M1166.01 612.056c-.2 0-.37-.068-.51-.202-.14-.135-.21-.318-.21-.55 0-.232.07-.415.21-.55a.707.707 0 0 1 .51-.202c.2 0 .37.067.5.202.14.135.22.318.22.55 0 .232-.08.415-.22.55a.672.672 0 0 1-.5.202Zm-2.18 1.582v-.774h3.03v5.151c0 .359-.05.662-.16.909a1.524 1.524 0 0 1-.98.954c-.22.067-.45.101-.7.101-.28 0-.57-.03-.86-.09-.29-.06-.56-.153-.81-.28l.28-.786c.18.09.39.165.62.224.23.068.45.101.66.101.3 0 .54-.078.74-.235.19-.15.29-.445.29-.887v-4.388h-2.11Z"/><path fill-rule="evenodd" clip-rule="evenodd" d="M1171.07 612.74c.7 0 1.25.221 1.63.662.38.434.57 1.097.57 1.987v.325h-3.73c.04.539.22.951.53 1.235.32.277.77.415 1.35.415.33 0 .61-.026.84-.078.23-.053.41-.109.53-.169l.12.786c-.11.06-.31.123-.61.191-.29.067-.62.101-.98.101-.45 0-.85-.068-1.19-.202a2.358 2.358 0 0 1-.84-.573c-.23-.239-.4-.524-.51-.853a3.479 3.479 0 0 1-.17-1.088c0-.464.07-.868.21-1.212.15-.345.33-.629.57-.853.23-.225.49-.393.78-.505.29-.113.59-.169.9-.169Zm1.26 2.222c0-.441-.12-.789-.35-1.043-.23-.262-.54-.393-.92-.393-.22 0-.42.041-.6.123-.17.083-.32.191-.45.326-.12.134-.22.288-.3.46-.07.172-.12.348-.14.527h2.76Z"/><path d="M1174.33 615.479c0-.472.07-.879.22-1.224a2.36 2.36 0 0 1 1.53-1.346c.35-.113.72-.169 1.12-.169.25 0 .5.019.75.056.26.03.52.09.81.18l-.21.797c-.25-.09-.48-.146-.69-.169a4.35 4.35 0 0 0-.62-.044c-.27 0-.52.037-.76.112-.24.067-.45.179-.63.336-.17.15-.31.348-.41.595-.11.24-.16.531-.16.876 0 .329.05.613.15.853.09.232.23.426.4.583.18.15.39.262.64.337.25.075.52.112.82.112.24 0 .47-.011.68-.034.23-.03.47-.089.73-.179l.14.774c-.26.097-.53.165-.8.202-.27.045-.56.068-.87.068-.42 0-.81-.057-1.16-.169-.35-.12-.64-.292-.9-.516a2.28 2.28 0 0 1-.58-.842c-.14-.344-.2-.74-.2-1.189Zm7.79-2.615h2.2v.774h-2.2v2.424c0 .262.01.475.05.64.04.165.1.299.18.404.09.097.2.165.34.202.13.037.3.056.49.056.27 0 .49-.022.65-.067.17-.045.32-.105.47-.18l.14.786c-.11.045-.27.104-.51.179-.22.075-.5.113-.84.113-.39 0-.71-.045-.95-.135-.25-.09-.44-.225-.59-.404a1.8 1.8 0 0 1-.28-.662c-.05-.27-.08-.58-.08-.932v-2.424h-1.1v-.774h1.1v-1.459l.93-.157v1.616Z"/></g><g filter="url(#aA)" fill="#747778"><path d="M1072.64 590.867v1.768h-4.29v13.863h-2.07v-13.863h-4.3v-1.768h10.66Z"/><path fill-rule="evenodd" clip-rule="evenodd" d="M1079.87 594.503c.87 0 1.6.11 2.19.329.61.218 1.1.521 1.47.909.37.387.63.858.78 1.414.15.555.23 1.161.23 1.818v7.323c-.49.084-1.14.185-1.95.303-.79.117-1.6.176-2.45.176-.64 0-1.26-.059-1.86-.176a4.818 4.818 0 0 1-1.62-.556 3.32 3.32 0 0 1-1.14-1.161c-.28-.489-.43-1.112-.43-1.869 0-.673.15-1.237.43-1.692.31-.471.68-.85 1.14-1.136.47-.286 1-.488 1.59-.606a8.355 8.355 0 0 1 1.82-.202c.82 0 1.63.092 2.42.278v-.581c0-.354-.04-.69-.12-1.01-.07-.337-.21-.64-.43-.909-.2-.27-.49-.48-.86-.632-.36-.168-.82-.252-1.39-.252-.72 0-1.36.05-1.89.151-.54.101-.96.202-1.24.303l-.25-1.717c.28-.134.75-.252 1.41-.353.67-.101 1.39-.152 2.15-.152Zm.2 10.505c.52 0 .98-.017 1.39-.051.42-.033.76-.075 1.03-.126v-3.485a5.872 5.872 0 0 0-.98-.202c-.37-.05-.77-.075-1.19-.075-.39 0-.77.033-1.14.101-.37.05-.69.151-.98.303-.29.151-.52.353-.71.606-.18.235-.28.538-.28.909 0 .757.26 1.288.76 1.591.52.286 1.22.429 2.1.429Zm14.92.404c-.23.134-.59.278-1.08.429-.49.152-1.05.227-1.69.227-.69 0-1.34-.109-1.95-.328a4.558 4.558 0 0 1-1.56-1.035 5.19 5.19 0 0 1-1.06-1.768c-.26-.724-.38-1.574-.38-2.55 0-.859.11-1.641.35-2.349.25-.723.61-1.346 1.06-1.868a4.76 4.76 0 0 1 1.72-1.212c.67-.303 1.44-.455 2.3-.455 1.01 0 1.87.076 2.57.228.73.134 1.33.269 1.82.404v10.454c0 1.818-.46 3.131-1.39 3.939-.91.808-2.29 1.212-4.14 1.212-.76 0-1.45-.059-2.07-.177-.61-.118-1.15-.261-1.62-.429l.38-1.844c.44.186.94.337 1.49.455.57.118 1.2.177 1.87.177 1.21 0 2.08-.244 2.6-.733.52-.488.78-1.279.78-2.373v-.404Zm0-8.788c-.2-.067-.48-.126-.83-.176-.35-.068-.83-.101-1.44-.101-1.08 0-1.9.37-2.47 1.111-.56.74-.84 1.725-.84 2.954 0 .673.08 1.254.23 1.742.17.472.39.867.66 1.187.28.303.6.531.96.682.35.135.73.202 1.13.202.53 0 1.01-.076 1.47-.227.47-.152.85-.329 1.13-.531v-6.843Z"/></g></g><path fill-rule="evenodd" clip-rule="evenodd" d="M235 477.008v49.752h5.904v-11.808l-.288-6.624h.216a17.882 17.882 0 0 0 5.112 3.384c1.92.768 3.696 1.152 5.328 1.152 2.112 0 4.128-.408 6.048-1.224 1.92-.864 3.6-2.112 5.04-3.744 1.488-1.632 2.664-3.6 3.528-5.904.864-2.352 1.296-5.016 1.296-7.992 0-2.736-.312-5.184-.936-7.344-.624-2.208-1.56-4.08-2.808-5.616a11.483 11.483 0 0 0-4.536-3.6c-1.776-.864-3.84-1.296-6.192-1.296-2.16 0-4.32.504-6.48 1.512a21.881 21.881 0 0 0-5.616 3.816h-.216l-.504-4.464H235Zm23.04 27.216c-2.016 2.448-4.608 3.672-7.776 3.672-1.2 0-2.64-.312-4.32-.936-1.68-.624-3.36-1.68-5.04-3.168v-17.424c1.824-1.824 3.6-3.144 5.328-3.96 1.776-.864 3.432-1.296 4.968-1.296 1.728 0 3.216.312 4.464.936a7.722 7.722 0 0 1 3.024 2.664c.816 1.104 1.416 2.448 1.8 4.032.384 1.584.576 3.336.576 5.256 0 4.368-1.008 7.776-3.024 10.224Zm26.54 7.92c1.44.48 2.976.72 4.608.72 2.496 0 4.92-.552 7.272-1.656 2.4-1.104 4.584-2.424 6.552-3.96h.216l.504 4.752h4.824v-21.456c0-4.368-1.176-7.848-3.528-10.44-2.304-2.64-5.856-3.96-10.656-3.96a20.53 20.53 0 0 0-4.536.504 28.993 28.993 0 0 0-4.248 1.152 32.792 32.792 0 0 0-3.744 1.656 28.243 28.243 0 0 0-3.024 1.728l2.304 4.032c1.632-1.008 3.504-1.944 5.616-2.808a16.537 16.537 0 0 1 6.624-1.368c1.68 0 3.096.24 4.248.72 1.2.48 2.16 1.128 2.88 1.944a7.078 7.078 0 0 1 1.584 2.736c.336 1.056.528 2.184.576 3.384-4.512.384-8.376.912-11.592 1.584-3.216.672-5.856 1.536-7.92 2.592-2.016 1.056-3.504 2.328-4.464 3.816-.912 1.44-1.368 3.144-1.368 5.112 0 1.584.312 3 .936 4.248a9.81 9.81 0 0 0 2.52 3.096c1.104.816 2.376 1.44 3.816 1.872Zm12.096-5.328c-1.92.864-3.888 1.296-5.904 1.296-1.008 0-1.992-.096-2.952-.288a9.36 9.36 0 0 1-2.448-1.008 6.294 6.294 0 0 1-1.656-1.728c-.432-.72-.648-1.584-.648-2.592 0-1.152.312-2.184.936-3.096.624-.96 1.68-1.8 3.168-2.52 1.536-.768 3.552-1.416 6.048-1.944 2.544-.528 5.688-.936 9.432-1.224v9.216c-2.016 1.68-4.008 2.976-5.976 3.888Z" fill="#001"/><path d="M331.928 511.64c2.352.816 4.896 1.224 7.632 1.224 2.592 0 5.064-.48 7.416-1.44a22.869 22.869 0 0 0 6.48-4.032l-2.664-3.816a21.443 21.443 0 0 1-4.896 3.168c-1.776.816-3.744 1.224-5.904 1.224-2.016 0-3.864-.312-5.544-.936-1.632-.672-3.048-1.584-4.248-2.736-1.152-1.2-2.064-2.616-2.736-4.248-.624-1.632-.936-3.456-.936-5.472 0-2.016.336-3.84 1.008-5.472.672-1.68 1.584-3.12 2.736-4.32 1.2-1.2 2.64-2.112 4.32-2.736 1.68-.672 3.528-1.008 5.544-1.008 1.824 0 3.504.36 5.04 1.08 1.584.72 3.096 1.704 4.536 2.952l2.952-3.816c-1.44-1.392-3.216-2.592-5.328-3.6-2.064-1.008-4.536-1.512-7.416-1.512-2.64 0-5.16.408-7.56 1.224-2.352.816-4.416 2.016-6.192 3.6-1.776 1.584-3.192 3.528-4.248 5.832-1.008 2.256-1.512 4.848-1.512 7.776 0 2.88.48 5.472 1.44 7.776.96 2.256 2.304 4.176 4.032 5.76 1.728 1.536 3.744 2.712 6.048 3.528Zm39.428-50.904h-5.904V512h5.904v-9.504l8.28-8.136L392.524 512h6.624l-15.84-21.24 13.968-13.752h-6.768l-18.864 18.432h-.288v-34.704Z" fill="#001"/><path fill-rule="evenodd" clip-rule="evenodd" d="M414.095 512.144c1.44.48 2.977.72 4.608.72 2.496 0 4.921-.552 7.272-1.656 2.4-1.104 4.584-2.424 6.552-3.96h.216l.504 4.752h4.825v-21.456c0-4.368-1.177-7.848-3.529-10.44-2.304-2.64-5.856-3.96-10.656-3.96-1.536 0-3.047.168-4.536.504a28.993 28.993 0 0 0-4.248 1.152 32.792 32.792 0 0 0-3.744 1.656 28.243 28.243 0 0 0-3.024 1.728l2.304 4.032c1.633-1.008 3.504-1.944 5.616-2.808a16.537 16.537 0 0 1 6.624-1.368c1.68 0 3.096.24 4.248.72 1.2.48 2.161 1.128 2.88 1.944a7.066 7.066 0 0 1 1.584 2.736c.336 1.056.528 2.184.577 3.384-4.513.384-8.377.912-11.593 1.584-3.216.672-5.855 1.536-7.92 2.592-2.016 1.056-3.504 2.328-4.464 3.816-.911 1.44-1.368 3.144-1.368 5.112 0 1.584.312 3 .936 4.248a9.814 9.814 0 0 0 2.521 3.096c1.104.816 2.375 1.44 3.815 1.872Zm12.096-5.328c-1.919.864-3.888 1.296-5.903 1.296-1.008 0-1.992-.096-2.953-.288a9.374 9.374 0 0 1-2.448-1.008 6.294 6.294 0 0 1-1.656-1.728c-.432-.72-.648-1.584-.648-2.592 0-1.152.312-2.184.937-3.096.623-.96 1.679-1.8 3.167-2.52 1.536-.768 3.552-1.416 6.049-1.944 2.544-.528 5.687-.936 9.432-1.224v9.216c-2.017 1.68-4.008 2.976-5.977 3.888Zm27.332 18.792c2.832 1.68 6.816 2.52 11.952 2.52 2.976 0 5.664-.336 8.064-1.008 2.4-.672 4.44-1.56 6.12-2.664 1.68-1.104 2.976-2.4 3.888-3.888.912-1.488 1.368-3.048 1.368-4.68 0-2.976-1.104-5.088-3.312-6.336-2.16-1.248-5.496-1.872-10.008-1.872h-7.848c-2.304 0-4.104-.312-5.4-.936-1.248-.672-1.872-1.704-1.872-3.096 0-1.536.912-2.88 2.736-4.032.96.432 1.944.768 2.952 1.008 1.056.192 2.04.288 2.952.288 1.872 0 3.624-.264 5.256-.792 1.68-.576 3.12-1.368 4.32-2.376a10.717 10.717 0 0 0 2.88-3.816c.72-1.488 1.08-3.168 1.08-5.04a9.339 9.339 0 0 0-.864-3.96c-.576-1.248-1.272-2.28-2.088-3.096h9.072v-4.824h-14.472c-1.536-.576-3.264-.864-5.184-.864-1.872 0-3.648.312-5.328.936a12.956 12.956 0 0 0-4.32 2.52c-1.248 1.056-2.256 2.352-3.024 3.888-.72 1.536-1.08 3.264-1.08 5.184 0 2.112.408 3.936 1.224 5.472.864 1.488 1.896 2.688 3.096 3.6v.288c-1.344.912-2.376 1.968-3.096 3.168-.72 1.152-1.08 2.28-1.08 3.384 0 1.488.36 2.688 1.08 3.6a8.283 8.283 0 0 0 2.52 2.16v.288c-1.872 1.104-3.312 2.328-4.32 3.672-.96 1.344-1.44 2.712-1.44 4.104 0 3.12 1.392 5.52 4.176 7.2Zm17.28-30.888c-1.536 1.488-3.432 2.232-5.688 2.232-2.208 0-4.104-.744-5.688-2.232-1.584-1.488-2.376-3.504-2.376-6.048 0-1.2.216-2.304.648-3.312a8.171 8.171 0 0 1 1.728-2.592 7.423 7.423 0 0 1 2.52-1.656 7.96 7.96 0 0 1 3.168-.648c1.104 0 2.136.216 3.096.648a7.277 7.277 0 0 1 2.592 1.656 8.171 8.171 0 0 1 1.728 2.592c.432 1.008.648 2.112.648 3.312 0 2.544-.792 4.56-2.376 6.048Zm.576 28.512c-1.632.384-3.456.576-5.472.576-3.744 0-6.6-.552-8.568-1.656-1.92-1.056-2.88-2.496-2.88-4.32 0-1.008.312-2.016.936-3.024.672-.96 1.848-1.896 3.528-2.808.768.24 1.584.384 2.448.432.912.096 1.872.144 2.88.144h6.84c2.688 0 4.68.288 5.976.864 1.344.576 2.016 1.704 2.016 3.384 0 .912-.312 1.776-.936 2.592-.576.864-1.44 1.608-2.592 2.232-1.152.672-2.544 1.2-4.176 1.584Zm32.3-11.592c2.304.816 4.776 1.224 7.416 1.224 2.832 0 5.352-.408 7.56-1.224 2.256-.816 4.248-1.8 5.976-2.952l-2.16-3.888a25.13 25.13 0 0 1-4.968 2.448c-1.68.576-3.576.864-5.688.864-3.648 0-6.744-.984-9.288-2.952-2.496-2.016-3.936-5.016-4.32-9h27.576c.096-.48.168-1.032.216-1.656a25.36 25.36 0 0 0 .072-1.944c0-2.448-.36-4.68-1.08-6.696-.72-2.016-1.776-3.744-3.168-5.184-1.344-1.44-3.024-2.544-5.04-3.312-1.968-.816-4.2-1.224-6.696-1.224-2.352 0-4.608.432-6.768 1.296a17.33 17.33 0 0 0-5.688 3.6c-1.632 1.584-2.952 3.504-3.96 5.76-.96 2.256-1.44 4.8-1.44 7.632 0 2.928.48 5.544 1.44 7.848 1.008 2.256 2.352 4.176 4.032 5.76a17.613 17.613 0 0 0 5.976 3.6Zm2.376-30.096c1.344-.48 2.736-.72 4.176-.72 3.024 0 5.448.888 7.272 2.664 1.872 1.776 2.928 4.464 3.168 8.064h-22.32c.288-1.728.792-3.264 1.512-4.608.72-1.344 1.608-2.448 2.664-3.312a11.433 11.433 0 0 1 3.528-2.088Z" fill="#001"/><path d="M547.931 511.208c1.152 1.104 2.544 1.656 4.176 1.656 1.632 0 3-.552 4.104-1.656 1.152-1.104 1.728-2.568 1.728-4.392 0-1.824-.576-3.288-1.728-4.392-1.104-1.152-2.472-1.728-4.104-1.728-1.632 0-3.024.576-4.176 1.728-1.104 1.104-1.656 2.568-1.656 4.392 0 1.824.552 3.288 1.656 4.392Zm34.388 15.696c1.728.48 3.504.72 5.328.72 2.832 0 5.184-.36 7.056-1.08 1.872-.72 3.36-1.752 4.464-3.096 1.152-1.296 1.968-2.856 2.448-4.68.48-1.776.72-3.744.72-5.904v-35.856h-22.176v4.824h16.272v31.464c0 1.488-.144 2.808-.432 3.96-.24 1.2-.696 2.208-1.368 3.024-.672.816-1.584 1.44-2.736 1.872-1.152.432-2.592.648-4.32.648a17.45 17.45 0 0 1-4.104-.504 18.942 18.942 0 0 1-3.888-1.44l-1.944 4.392c1.392.672 2.952 1.224 4.68 1.656Zm13.032-58.464c.912.816 2.04 1.224 3.384 1.224 1.344 0 2.472-.408 3.384-1.224.912-.864 1.368-1.992 1.368-3.384s-.456-2.496-1.368-3.312c-.912-.864-2.04-1.296-3.384-1.296-1.344 0-2.472.432-3.384 1.296-.912.816-1.368 1.92-1.368 3.312s.456 2.52 1.368 3.384Zm34.244 42.84c2.928 1.056 6.12 1.584 9.576 1.584 2.496 0 4.704-.288 6.624-.864 1.968-.528 3.6-1.272 4.896-2.232 1.344-.96 2.352-2.064 3.024-3.312a8.374 8.374 0 0 0 1.008-4.032c0-1.344-.216-2.544-.648-3.6-.384-1.056-1.128-2.016-2.232-2.88-1.056-.864-2.52-1.632-4.392-2.304-1.872-.72-4.272-1.392-7.2-2.016-3.6-.768-6.192-1.536-7.776-2.304-1.584-.816-2.376-1.992-2.376-3.528 0-1.344.6-2.52 1.8-3.528 1.2-1.008 3.288-1.512 6.264-1.512 2.256 0 4.368.336 6.336 1.008a22.641 22.641 0 0 1 5.4 2.664l2.88-3.816c-1.728-1.2-3.84-2.232-6.336-3.096a22.482 22.482 0 0 0-7.776-1.368c-2.4 0-4.512.264-6.336.792-1.776.48-3.288 1.176-4.536 2.088-1.2.864-2.112 1.92-2.736 3.168a8.303 8.303 0 0 0-.936 3.888c0 2.64 1.128 4.776 3.384 6.408 2.304 1.584 5.736 2.856 10.296 3.816 2.352.48 4.248.96 5.688 1.44 1.44.48 2.544.984 3.312 1.512.816.528 1.344 1.08 1.584 1.656.24.576.36 1.2.36 1.872 0 1.488-.744 2.784-2.232 3.888-1.44 1.056-3.648 1.584-6.624 1.584-3.264 0-6.12-.432-8.568-1.296a27.161 27.161 0 0 1-6.624-3.456l-2.736 3.888c2.16 1.488 4.704 2.784 7.632 3.888Z" fill="#001"/><path fill-rule="evenodd" clip-rule="evenodd" d="M674.999 511.64a18.22 18.22 0 0 0 6.624 1.224c2.304 0 4.488-.408 6.552-1.224a16.323 16.323 0 0 0 5.544-3.528c1.584-1.584 2.832-3.504 3.744-5.76.96-2.304 1.44-4.896 1.44-7.776 0-2.928-.48-5.52-1.44-7.776-.912-2.304-2.16-4.248-3.744-5.832a15.808 15.808 0 0 0-5.544-3.6c-2.064-.816-4.248-1.224-6.552-1.224a18.22 18.22 0 0 0-6.624 1.224 15.965 15.965 0 0 0-5.472 3.6c-1.584 1.584-2.856 3.528-3.816 5.832-.912 2.256-1.368 4.848-1.368 7.776 0 2.88.456 5.472 1.368 7.776.96 2.256 2.232 4.176 3.816 5.76a16.493 16.493 0 0 0 5.472 3.528Zm11.16-4.608c-1.344.624-2.856.936-4.536.936-1.68 0-3.216-.312-4.608-.936a11.463 11.463 0 0 1-3.528-2.736c-.96-1.2-1.704-2.616-2.232-4.248-.528-1.632-.792-3.456-.792-5.472 0-2.016.264-3.84.792-5.472.528-1.68 1.272-3.12 2.232-4.32 1.008-1.2 2.184-2.112 3.528-2.736 1.392-.672 2.928-1.008 4.608-1.008 1.68 0 3.192.336 4.536 1.008a9.364 9.364 0 0 1 3.528 2.736c1.008 1.2 1.776 2.64 2.304 4.32.528 1.632.792 3.456.792 5.472 0 2.016-.264 3.84-.792 5.472-.528 1.632-1.296 3.048-2.304 4.248a10.436 10.436 0 0 1-3.528 2.736Z" fill="#001"/><path d="M714.787 477.008h-4.896V512h5.904v-24.408a36.798 36.798 0 0 1 2.88-2.736c.912-.816 1.8-1.488 2.664-2.016a10.23 10.23 0 0 1 2.592-1.152 9.753 9.753 0 0 1 2.952-.432c2.88 0 4.944.816 6.192 2.448 1.248 1.584 1.872 4.032 1.872 7.344V512h5.904v-21.744c0-4.656-.984-8.16-2.952-10.512-1.92-2.4-4.968-3.6-9.144-3.6-2.736 0-5.16.648-7.272 1.944-2.112 1.296-4.08 2.928-5.904 4.896h-.288l-.504-5.976Zm87.351-16.272h-5.904V512h5.904v-24.408a36.798 36.798 0 0 1 2.88-2.736c.912-.816 1.8-1.488 2.664-2.016a10.23 10.23 0 0 1 2.592-1.152 9.753 9.753 0 0 1 2.952-.432c2.88 0 4.944.816 6.192 2.448 1.248 1.584 1.872 4.032 1.872 7.344V512h5.904v-21.744c0-4.656-.984-8.16-2.952-10.512-1.92-2.4-4.968-3.6-9.144-3.6-2.736 0-5.16.648-7.272 1.944-2.064 1.296-4.008 2.928-5.832 4.896h-.216l.36-8.28v-13.968Z" fill="#001"/><path fill-rule="evenodd" clip-rule="evenodd" d="M849.054 511.64c2.304.816 4.776 1.224 7.416 1.224 2.832 0 5.352-.408 7.56-1.224 2.256-.816 4.248-1.8 5.976-2.952l-2.16-3.888a25.13 25.13 0 0 1-4.968 2.448c-1.68.576-3.576.864-5.688.864-3.648 0-6.744-.984-9.288-2.952-2.496-2.016-3.936-5.016-4.32-9h27.576c.096-.48.168-1.032.216-1.656a25.36 25.36 0 0 0 .072-1.944c0-2.448-.36-4.68-1.08-6.696-.72-2.016-1.776-3.744-3.168-5.184-1.344-1.44-3.024-2.544-5.04-3.312-1.968-.816-4.2-1.224-6.696-1.224-2.352 0-4.608.432-6.768 1.296a17.33 17.33 0 0 0-5.688 3.6c-1.632 1.584-2.952 3.504-3.96 5.76-.96 2.256-1.44 4.8-1.44 7.632 0 2.928.48 5.544 1.44 7.848 1.008 2.256 2.352 4.176 4.032 5.76a17.613 17.613 0 0 0 5.976 3.6Zm2.376-30.096c1.344-.48 2.736-.72 4.176-.72 3.024 0 5.448.888 7.272 2.664 1.872 1.776 2.928 4.464 3.168 8.064h-22.32c.288-1.728.792-3.264 1.512-4.608.72-1.344 1.608-2.448 2.664-3.312a11.433 11.433 0 0 1 3.528-2.088Z" fill="#001"/><path d="M896.618 509.696c1.968 2.112 4.824 3.168 8.568 3.168 1.92 0 3.552-.192 4.896-.576 1.344-.336 2.832-.84 4.464-1.512l-1.512-4.392c-2.304 1.056-4.488 1.584-6.552 1.584-2.112 0-3.792-.552-5.04-1.656-1.248-1.152-1.872-3.024-1.872-5.616v-39.96h-18.36v4.824h12.456v34.704c0 4.176.984 7.32 2.952 9.432Z" fill="#001"/><path fill-rule="evenodd" clip-rule="evenodd" d="M925.75 477.008v49.752h5.904v-11.808l-.288-6.624h.216a17.882 17.882 0 0 0 5.112 3.384c1.92.768 3.696 1.152 5.328 1.152 2.112 0 4.128-.408 6.048-1.224 1.92-.864 3.6-2.112 5.04-3.744 1.488-1.632 2.664-3.6 3.528-5.904.864-2.352 1.296-5.016 1.296-7.992 0-2.736-.312-5.184-.936-7.344-.624-2.208-1.56-4.08-2.808-5.616a11.483 11.483 0 0 0-4.536-3.6c-1.776-.864-3.84-1.296-6.192-1.296-2.16 0-4.32.504-6.48 1.512a21.881 21.881 0 0 0-5.616 3.816h-.216l-.504-4.464h-4.896Zm23.04 27.216c-2.016 2.448-4.608 3.672-7.776 3.672-1.2 0-2.64-.312-4.32-.936-1.68-.624-3.36-1.68-5.04-3.168v-17.424c1.824-1.824 3.6-3.144 5.328-3.96 1.776-.864 3.432-1.296 4.968-1.296 1.728 0 3.216.312 4.464.936a7.722 7.722 0 0 1 3.024 2.664c.816 1.104 1.416 2.448 1.8 4.032.384 1.584.576 3.336.576 5.256 0 4.368-1.008 7.776-3.024 10.224Zm29.78 7.416c2.304.816 4.776 1.224 7.416 1.224 2.832 0 5.352-.408 7.56-1.224 2.256-.816 4.248-1.8 5.976-2.952l-2.16-3.888a25.13 25.13 0 0 1-4.968 2.448c-1.68.576-3.576.864-5.688.864-3.648 0-6.744-.984-9.288-2.952-2.496-2.016-3.936-5.016-4.32-9h27.572c.1-.48.17-1.032.22-1.656.05-.624.07-1.272.07-1.944 0-2.448-.36-4.68-1.078-6.696-.72-2.016-1.776-3.744-3.168-5.184-1.344-1.44-3.024-2.544-5.04-3.312-1.968-.816-4.2-1.224-6.696-1.224-2.352 0-4.608.432-6.768 1.296a17.33 17.33 0 0 0-5.688 3.6c-1.632 1.584-2.952 3.504-3.96 5.76-.96 2.256-1.44 4.8-1.44 7.632 0 2.928.48 5.544 1.44 7.848 1.008 2.256 2.352 4.176 4.032 5.76a17.613 17.613 0 0 0 5.976 3.6Zm2.376-30.096c1.344-.48 2.736-.72 4.176-.72 3.024 0 5.448.888 7.272 2.664 1.872 1.776 2.928 4.464 3.168 8.064h-22.32c.288-1.728.792-3.264 1.512-4.608.72-1.344 1.608-2.448 2.664-3.312a11.433 11.433 0 0 1 3.528-2.088Z" fill="#001"/><path d="M1020.81 477.008h-4.9V512h5.9v-20.52c2.12-3.648 4.37-6.216 6.77-7.704 2.45-1.536 4.99-2.304 7.63-2.304 1.4 0 2.5.096 3.32.288.86.192 1.92.504 3.16.936l1.37-5.112c-1.1-.528-2.21-.888-3.31-1.08-1.1-.24-2.3-.36-3.6-.36-3.26 0-6.24.816-8.93 2.448-2.64 1.632-4.87 3.864-6.69 6.696h-.22l-.5-8.28Z" fill="#001"/><g filter="url(#aB)" fill="#001"><path d="m575 294-14-24-14 24h10v36h8v-36h10Zm10 52h-95v-8h95v8Zm-67-16v-36h10l-14-24-14 24h10v36h8Zm262-59c2.194 0 4-1.791 4-4s-1.806-4-4-4a4.01 4.01 0 0 0-4 4c0 2.209 1.806 4 4 4Zm12 4c0 2.209-1.806 4-4 4a4.01 4.01 0 0 1-4-4c0-2.209 1.806-4 4-4s4 1.791 4 4Zm-2 28c0-17.673-13.447-32-31-32s-31 14.333-31 32.006l28-.006v33h-.027a4.502 4.502 0 0 1-8.946 0h-6.015c.261 5.567 4.857 10 10.488 10 5.631 0 10.227-4.433 10.488-10H762v-33h28Z"/><path fill-rule="evenodd" clip-rule="evenodd" d="M517 111h255l67 101v218H450V212l67-101Zm-52 104v200h359V215H664v32h-39v-32H465Zm7-8h153v-80H525l-53 80Zm192 0h153l-53-80H664v80Z"/></g><defs><linearGradient id="c" x1="3.506" y1="2.178" x2="816.433" y2="701.934" gradientUnits="userSpaceOnUse"><stop offset=".059" stop-color="#FF3A75"/><stop offset="1" stop-color="#00D1FF"/></linearGradient><linearGradient id="d" x1="3.506" y1="2.178" x2="816.433" y2="701.934" gradientUnits="userSpaceOnUse"><stop offset=".059" stop-color="#FF3A75"/><stop offset="1" stop-color="#00D1FF"/></linearGradient><linearGradient id="e" x1="3.506" y1="2.178" x2="816.433" y2="701.934" gradientUnits="userSpaceOnUse"><stop offset=".059" stop-color="#FF3A75"/><stop offset="1" stop-color="#00D1FF"/></linearGradient><linearGradient id="f" x1="3.506" y1="2.178" x2="816.433" y2="701.934" gradientUnits="userSpaceOnUse"><stop offset=".059" stop-color="#FF3A75"/><stop offset="1" stop-color="#00D1FF"/></linearGradient><linearGradient id="g" x1="3.506" y1="2.178" x2="816.433" y2="701.934" gradientUnits="userSpaceOnUse"><stop offset=".059" stop-color="#FF3A75"/><stop offset="1" stop-color="#00D1FF"/></linearGradient><linearGradient id="h" x1="3.506" y1="2.178" x2="816.433" y2="701.934" gradientUnits="userSpaceOnUse"><stop offset=".059" stop-color="#FF3A75"/><stop offset="1" stop-color="#00D1FF"/></linearGradient><linearGradient id="i" x1="3.506" y1="2.178" x2="816.433" y2="701.934" gradientUnits="userSpaceOnUse"><stop offset=".059" stop-color="#FF3A75"/><stop offset="1" stop-color="#00D1FF"/></linearGradient><linearGradient id="j" x1="3.506" y1="2.178" x2="816.433" y2="701.934" gradientUnits="userSpaceOnUse"><stop offset=".059" stop-color="#FF3A75"/><stop offset="1" stop-color="#00D1FF"/></linearGradient><linearGradient id="k" x1="3.506" y1="2.178" x2="816.433" y2="701.934" gradientUnits="userSpaceOnUse"><stop offset=".059" stop-color="#FF3A75"/><stop offset="1" stop-color="#00D1FF"/></linearGradient><linearGradient id="l" x1="3.506" y1="2.178" x2="816.433" y2="701.934" gradientUnits="userSpaceOnUse"><stop offset=".059" stop-color="#FF3A75"/><stop offset="1" stop-color="#00D1FF"/></linearGradient><linearGradient id="m" x1="3.506" y1="2.178" x2="816.433" y2="701.934" gradientUnits="userSpaceOnUse"><stop offset=".059" stop-color="#FF3A75"/><stop offset="1" stop-color="#00D1FF"/></linearGradient><linearGradient id="n" x1="3.506" y1="2.178" x2="816.433" y2="701.934" gradientUnits="userSpaceOnUse"><stop offset=".059" stop-color="#FF3A75"/><stop offset="1" stop-color="#00D1FF"/></linearGradient><linearGradient id="o" x1="3.506" y1="2.178" x2="816.433" y2="701.934" gradientUnits="userSpaceOnUse"><stop offset=".059" stop-color="#FF3A75"/><stop offset="1" stop-color="#00D1FF"/></linearGradient><linearGradient id="p" x1="3.506" y1="2.178" x2="816.433" y2="701.934" gradientUnits="userSpaceOnUse"><stop offset=".059" stop-color="#FF3A75"/><stop offset="1" stop-color="#00D1FF"/></linearGradient><linearGradient id="q" x1="3.506" y1="2.178" x2="816.433" y2="701.934" gradientUnits="userSpaceOnUse"><stop offset=".059" stop-color="#FF3A75"/><stop offset="1" stop-color="#00D1FF"/></linearGradient><linearGradient id="r" x1="3.506" y1="2.178" x2="816.433" y2="701.934" gradientUnits="userSpaceOnUse"><stop offset=".059" stop-color="#FF3A75"/><stop offset="1" stop-color="#00D1FF"/></linearGradient><linearGradient id="s" x1="3.506" y1="2.178" x2="816.433" y2="701.934" gradientUnits="userSpaceOnUse"><stop offset=".059" stop-color="#FF3A75"/><stop offset="1" stop-color="#00D1FF"/></linearGradient><linearGradient id="t" x1="3.506" y1="2.178" x2="816.433" y2="701.934" gradientUnits="userSpaceOnUse"><stop offset=".059" stop-color="#FF3A75"/><stop offset="1" stop-color="#00D1FF"/></linearGradient><linearGradient id="u" x1="3.506" y1="2.178" x2="816.433" y2="701.934" gradientUnits="userSpaceOnUse"><stop offset=".059" stop-color="#FF3A75"/><stop offset="1" stop-color="#00D1FF"/></linearGradient><linearGradient id="v" x1="3.506" y1="2.178" x2="816.433" y2="701.934" gradientUnits="userSpaceOnUse"><stop offset=".059" stop-color="#FF3A75"/><stop offset="1" stop-color="#00D1FF"/></linearGradient><linearGradient id="w" x1="3.506" y1="2.178" x2="816.433" y2="701.934" gradientUnits="userSpaceOnUse"><stop offset=".059" stop-color="#FF3A75"/><stop offset="1" stop-color="#00D1FF"/></linearGradient><linearGradient id="x" x1="3.506" y1="2.178" x2="816.433" y2="701.934" gradientUnits="userSpaceOnUse"><stop offset=".059" stop-color="#FF3A75"/><stop offset="1" stop-color="#00D1FF"/></linearGradient><linearGradient id="y" x1="3.506" y1="2.178" x2="816.433" y2="701.934" gradientUnits="userSpaceOnUse"><stop offset=".059" stop-color="#FF3A75"/><stop offset="1" stop-color="#00D1FF"/></linearGradient><linearGradient id="z" x1="3.506" y1="2.178" x2="816.433" y2="701.934" gradientUnits="userSpaceOnUse"><stop offset=".059" stop-color="#FF3A75"/><stop offset="1" stop-color="#00D1FF"/></linearGradient><linearGradient id="A" x1="3.506" y1="2.178" x2="816.433" y2="701.934" gradientUnits="userSpaceOnUse"><stop offset=".059" stop-color="#FF3A75"/><stop offset="1" stop-color="#00D1FF"/></linearGradient><linearGradient id="B" x1="3.506" y1="2.178" x2="816.433" y2="701.934" gradientUnits="userSpaceOnUse"><stop offset=".059" stop-color="#FF3A75"/><stop offset="1" stop-color="#00D1FF"/></linearGradient><linearGradient id="C" x1="3.506" y1="2.178" x2="816.433" y2="701.934" gradientUnits="userSpaceOnUse"><stop offset=".059" stop-color="#FF3A75"/><stop offset="1" stop-color="#00D1FF"/></linearGradient><linearGradient id="D" x1="3.506" y1="2.178" x2="816.433" y2="701.934" gradientUnits="userSpaceOnUse"><stop offset=".059" stop-color="#FF3A75"/><stop offset="1" stop-color="#00D1FF"/></linearGradient><linearGradient id="E" x1="3.506" y1="2.178" x2="816.433" y2="701.934" gradientUnits="userSpaceOnUse"><stop offset=".059" stop-color="#FF3A75"/><stop offset="1" stop-color="#00D1FF"/></linearGradient><linearGradient id="F" x1="3.506" y1="2.178" x2="816.433" y2="701.934" gradientUnits="userSpaceOnUse"><stop offset=".059" stop-color="#FF3A75"/><stop offset="1" stop-color="#00D1FF"/></linearGradient><linearGradient id="G" x1="3.506" y1="2.178" x2="816.433" y2="701.934" gradientUnits="userSpaceOnUse"><stop offset=".059" stop-color="#FF3A75"/><stop offset="1" stop-color="#00D1FF"/></linearGradient><linearGradient id="H" x1="3.506" y1="2.178" x2="816.433" y2="701.934" gradientUnits="userSpaceOnUse"><stop offset=".059" stop-color="#FF3A75"/><stop offset="1" stop-color="#00D1FF"/></linearGradient><linearGradient id="I" x1="3.506" y1="2.178" x2="816.433" y2="701.934" gradientUnits="userSpaceOnUse"><stop offset=".059" stop-color="#FF3A75"/><stop offset="1" stop-color="#00D1FF"/></linearGradient><linearGradient id="J" x1="3.506" y1="2.178" x2="816.433" y2="701.934" gradientUnits="userSpaceOnUse"><stop offset=".059" stop-color="#FF3A75"/><stop offset="1" stop-color="#00D1FF"/></linearGradient><linearGradient id="K" x1="3.506" y1="2.178" x2="816.433" y2="701.934" gradientUnits="userSpaceOnUse"><stop offset=".059" stop-color="#FF3A75"/><stop offset="1" stop-color="#00D1FF"/></linearGradient><linearGradient id="L" x1="3.506" y1="2.178" x2="816.433" y2="701.934" gradientUnits="userSpaceOnUse"><stop offset=".059" stop-color="#FF3A75"/><stop offset="1" stop-color="#00D1FF"/></linearGradient><linearGradient id="M" x1="3.506" y1="2.178" x2="816.433" y2="701.934" gradientUnits="userSpaceOnUse"><stop offset=".059" stop-color="#FF3A75"/><stop offset="1" stop-color="#00D1FF"/></linearGradient><linearGradient id="N" x1="3.506" y1="2.178" x2="816.433" y2="701.934" gradientUnits="userSpaceOnUse"><stop offset=".059" stop-color="#FF3A75"/><stop offset="1" stop-color="#00D1FF"/></linearGradient><linearGradient id="O" x1="3.506" y1="2.178" x2="816.433" y2="701.934" gradientUnits="userSpaceOnUse"><stop offset=".059" stop-color="#FF3A75"/><stop offset="1" stop-color="#00D1FF"/></linearGradient><linearGradient id="P" x1="3.506" y1="2.178" x2="816.433" y2="701.934" gradientUnits="userSpaceOnUse"><stop offset=".059" stop-color="#FF3A75"/><stop offset="1" stop-color="#00D1FF"/></linearGradient><linearGradient id="Q" x1="3.506" y1="2.178" x2="816.433" y2="701.934" gradientUnits="userSpaceOnUse"><stop offset=".059" stop-color="#FF3A75"/><stop offset="1" stop-color="#00D1FF"/></linearGradient><linearGradient id="R" x1="3.506" y1="2.178" x2="816.433" y2="701.934" gradientUnits="userSpaceOnUse"><stop offset=".059" stop-color="#FF3A75"/><stop offset="1" stop-color="#00D1FF"/></linearGradient><linearGradient id="S" x1="3.506" y1="2.178" x2="816.433" y2="701.934" gradientUnits="userSpaceOnUse"><stop offset=".059" stop-color="#FF3A75"/><stop offset="1" stop-color="#00D1FF"/></linearGradient><linearGradient id="T" x1="3.506" y1="2.178" x2="816.433" y2="701.934" gradientUnits="userSpaceOnUse"><stop offset=".059" stop-color="#FF3A75"/><stop offset="1" stop-color="#00D1FF"/></linearGradient><linearGradient id="U" x1="3.506" y1="2.178" x2="816.433" y2="701.934" gradientUnits="userSpaceOnUse"><stop offset=".059" stop-color="#FF3A75"/><stop offset="1" stop-color="#00D1FF"/></linearGradient><linearGradient id="V" x1="3.506" y1="2.178" x2="816.433" y2="701.934" gradientUnits="userSpaceOnUse"><stop offset=".059" stop-color="#FF3A75"/><stop offset="1" stop-color="#00D1FF"/></linearGradient><linearGradient id="W" x1="3.506" y1="2.178" x2="816.433" y2="701.934" gradientUnits="userSpaceOnUse"><stop offset=".059" stop-color="#FF3A75"/><stop offset="1" stop-color="#00D1FF"/></linearGradient><linearGradient id="X" x1="3.506" y1="2.178" x2="816.433" y2="701.934" gradientUnits="userSpaceOnUse"><stop offset=".059" stop-color="#FF3A75"/><stop offset="1" stop-color="#00D1FF"/></linearGradient><linearGradient id="Y" x1="3.506" y1="2.178" x2="816.433" y2="701.934" gradientUnits="userSpaceOnUse"><stop offset=".059" stop-color="#FF3A75"/><stop offset="1" stop-color="#00D1FF"/></linearGradient><linearGradient id="Z" x1="3.506" y1="2.178" x2="816.433" y2="701.934" gradientUnits="userSpaceOnUse"><stop offset=".059" stop-color="#FF3A75"/><stop offset="1" stop-color="#00D1FF"/></linearGradient><linearGradient id="aa" x1="3.506" y1="2.178" x2="816.433" y2="701.934" gradientUnits="userSpaceOnUse"><stop offset=".059" stop-color="#FF3A75"/><stop offset="1" stop-color="#00D1FF"/></linearGradient><linearGradient id="ab" x1="3.506" y1="2.178" x2="816.433" y2="701.934" gradientUnits="userSpaceOnUse"><stop offset=".059" stop-color="#FF3A75"/><stop offset="1" stop-color="#00D1FF"/></linearGradient><linearGradient id="ac" x1="3.506" y1="2.178" x2="816.433" y2="701.934" gradientUnits="userSpaceOnUse"><stop offset=".059" stop-color="#FF3A75"/><stop offset="1" stop-color="#00D1FF"/></linearGradient><linearGradient id="ad" x1="3.506" y1="2.178" x2="816.433" y2="701.934" gradientUnits="userSpaceOnUse"><stop offset=".059" stop-color="#FF3A75"/><stop offset="1" stop-color="#00D1FF"/></linearGradient><linearGradient id="ae" x1="3.506" y1="2.178" x2="816.433" y2="701.934" gradientUnits="userSpaceOnUse"><stop offset=".059" stop-color="#FF3A75"/><stop offset="1" stop-color="#00D1FF"/></linearGradient><linearGradient id="af" x1="3.506" y1="2.178" x2="816.433" y2="701.934" gradientUnits="userSpaceOnUse"><stop offset=".059" stop-color="#FF3A75"/><stop offset="1" stop-color="#00D1FF"/></linearGradient><linearGradient id="ag" x1="3.506" y1="2.178" x2="816.433" y2="701.934" gradientUnits="userSpaceOnUse"><stop offset=".059" stop-color="#FF3A75"/><stop offset="1" stop-color="#00D1FF"/></linearGradient><linearGradient id="ah" x1="3.506" y1="2.178" x2="816.433" y2="701.934" gradientUnits="userSpaceOnUse"><stop offset=".059" stop-color="#FF3A75"/><stop offset="1" stop-color="#00D1FF"/></linearGradient><linearGradient id="ai" x1="3.506" y1="2.178" x2="816.433" y2="701.934" gradientUnits="userSpaceOnUse"><stop offset=".059" stop-color="#FF3A75"/><stop offset="1" stop-color="#00D1FF"/></linearGradient><linearGradient id="aj" x1="3.506" y1="2.178" x2="816.433" y2="701.934" gradientUnits="userSpaceOnUse"><stop offset=".059" stop-color="#FF3A75"/><stop offset="1" stop-color="#00D1FF"/></linearGradient><linearGradient id="ak" x1="3.506" y1="2.178" x2="816.433" y2="701.934" gradientUnits="userSpaceOnUse"><stop offset=".059" stop-color="#FF3A75"/><stop offset="1" stop-color="#00D1FF"/></linearGradient><linearGradient id="al" x1="3.506" y1="2.178" x2="816.433" y2="701.934" gradientUnits="userSpaceOnUse"><stop offset=".059" stop-color="#FF3A75"/><stop offset="1" stop-color="#00D1FF"/></linearGradient><linearGradient id="am" x1="3.506" y1="2.178" x2="816.433" y2="701.934" gradientUnits="userSpaceOnUse"><stop offset=".059" stop-color="#FF3A75"/><stop offset="1" stop-color="#00D1FF"/></linearGradient><linearGradient id="an" x1="3.506" y1="2.178" x2="816.433" y2="701.934" gradientUnits="userSpaceOnUse"><stop offset=".059" stop-color="#FF3A75"/><stop offset="1" stop-color="#00D1FF"/></linearGradient><linearGradient id="ao" x1="3.506" y1="2.178" x2="816.433" y2="701.934" gradientUnits="userSpaceOnUse"><stop offset=".059" stop-color="#FF3A75"/><stop offset="1" stop-color="#00D1FF"/></linearGradient><linearGradient id="ap" x1="3.506" y1="2.178" x2="816.433" y2="701.934" gradientUnits="userSpaceOnUse"><stop offset=".059" stop-color="#FF3A75"/><stop offset="1" stop-color="#00D1FF"/></linearGradient><linearGradient id="aq" x1="3.506" y1="2.178" x2="816.433" y2="701.934" gradientUnits="userSpaceOnUse"><stop offset=".059" stop-color="#FF3A75"/><stop offset="1" stop-color="#00D1FF"/></linearGradient><linearGradient id="ar" x1="3.506" y1="2.178" x2="816.433" y2="701.934" gradientUnits="userSpaceOnUse"><stop offset=".059" stop-color="#FF3A75"/><stop offset="1" stop-color="#00D1FF"/></linearGradient><linearGradient id="as" x1="3.506" y1="2.178" x2="816.433" y2="701.934" gradientUnits="userSpaceOnUse"><stop offset=".059" stop-color="#FF3A75"/><stop offset="1" stop-color="#00D1FF"/></linearGradient><linearGradient id="at" x1="3.506" y1="2.178" x2="816.433" y2="701.934" gradientUnits="userSpaceOnUse"><stop offset=".059" stop-color="#FF3A75"/><stop offset="1" stop-color="#00D1FF"/></linearGradient><filter id="b" x="-.1" y="-1.822" width="877.74" height="649.618" filterUnits="userSpaceOnUse" color-interpolation-filters="sRGB"><feFlood flood-opacity="0" result="BackgroundImageFix"/><feColorMatrix in="SourceAlpha" values="0 0 0 0 0 0 0 0 0 0 0 0 0 0 0 0 0 0 127 0" result="hardAlpha"/><feOffset dx="2" dy="4"/><feGaussianBlur stdDeviation="2"/><feColorMatrix values="0 0 0 0 0.0823529 0 0 0 0 0.12549 0 0 0 0 0.168627 0 0 0 0.4 0"/><feBlend in2="BackgroundImageFix" result="effect1_dropShadow_102_79"/><feBlend in="SourceGraphic" in2="effect1_dropShadow_102_79" result="shape"/><feColorMatrix in="SourceAlpha" values="0 0 0 0 0 0 0 0 0 0 0 0 0 0 0 0 0 0 127 0" result="hardAlpha"/><feOffset dy="-4"/><feGaussianBlur stdDeviation="4"/><feComposite in2="hardAlpha" operator="arithmetic" k2="-1" k3="1"/><feColorMatrix values="0 0 0 0 0.0666667 0 0 0 0 0.0666667 0 0 0 0 0.0666667 0 0 0 0.3 0"/><feBlend in2="shape" result="effect2_innerShadow_102_79"/></filter><filter id="au" x="69" y="73" width="1146" height="502" filterUnits="userSpaceOnUse" color-interpolation-filters="sRGB"><feFlood flood-opacity="0" result="BackgroundImageFix"/><feColorMatrix in="SourceAlpha" values="0 0 0 0 0 0 0 0 0 0 0 0 0 0 0 0 0 0 127 0" result="hardAlpha"/><feOffset dx="2" dy="4"/><feGaussianBlur stdDeviation="4"/><feColorMatrix values="0 0 0 0 0.0823529 0 0 0 0 0.12549 0 0 0 0 0.168627 0 0 0 0.4 0"/><feBlend in2="BackgroundImageFix" result="effect1_dropShadow_102_79"/><feBlend in="SourceGraphic" in2="effect1_dropShadow_102_79" result="shape"/></filter><filter id="av" x="1116.37" y="572.024" width="26.715" height="37.478" filterUnits="userSpaceOnUse" color-interpolation-filters="sRGB"><feFlood flood-opacity="0" result="BackgroundImageFix"/><feColorMatrix in="SourceAlpha" values="0 0 0 0 0 0 0 0 0 0 0 0 0 0 0 0 0 0 127 0" result="hardAlpha"/><feOffset dy="4"/><feGaussianBlur stdDeviation="2"/><feColorMatrix values="0 0 0 0 0 0 0 0 0 0 0 0 0 0 0 0 0 0 0.25 0"/><feBlend in2="BackgroundImageFix" result="effect1_dropShadow_102_79"/><feBlend in="SourceGraphic" in2="effect1_dropShadow_102_79" result="shape"/><feColorMatrix in="SourceAlpha" values="0 0 0 0 0 0 0 0 0 0 0 0 0 0 0 0 0 0 127 0" result="hardAlpha"/><feOffset dx="-6" dy="-12"/><feGaussianBlur stdDeviation="8"/><feComposite in2="hardAlpha" operator="arithmetic" k2="-1" k3="1"/><feColorMatrix values="0 0 0 0 0.0666667 0 0 0 0 0.0666667 0 0 0 0 0.0666667 0 0 0 0.3 0"/><feBlend mode="hard-light" in2="shape" result="effect2_innerShadow_102_79"/></filter><filter id="aw" x="1116.36" y="589.649" width="41.723" height="41.192" filterUnits="userSpaceOnUse" color-interpolation-filters="sRGB"><feFlood flood-opacity="0" result="BackgroundImageFix"/><feColorMatrix in="SourceAlpha" values="0 0 0 0 0 0 0 0 0 0 0 0 0 0 0 0 0 0 127 0" result="hardAlpha"/><feOffset dx="3" dy="6"/><feGaussianBlur stdDeviation="6"/><feColorMatrix values="0 0 0 0 0 0 0 0 0 0 0 0 0 0 0 0 0 0 0.35 0"/><feBlend in2="BackgroundImageFix" result="effect1_dropShadow_102_79"/><feBlend in="SourceGraphic" in2="effect1_dropShadow_102_79" result="shape"/></filter><filter id="ax" x="1100.59" y="600.549" width="26.715" height="29.478" filterUnits="userSpaceOnUse" color-interpolation-filters="sRGB"><feFlood flood-opacity="0" result="BackgroundImageFix"/><feColorMatrix in="SourceAlpha" values="0 0 0 0 0 0 0 0 0 0 0 0 0 0 0 0 0 0 127 0" result="hardAlpha"/><feOffset dy="4"/><feGaussianBlur stdDeviation="2"/><feColorMatrix values="0 0 0 0 0 0 0 0 0 0 0 0 0 0 0 0 0 0 0.25 0"/><feBlend in2="BackgroundImageFix" result="effect1_dropShadow_102_79"/><feBlend in="SourceGraphic" in2="effect1_dropShadow_102_79" result="shape"/><feColorMatrix in="SourceAlpha" values="0 0 0 0 0 0 0 0 0 0 0 0 0 0 0 0 0 0 127 0" result="hardAlpha"/><feOffset dx="6" dy="12"/><feGaussianBlur stdDeviation="8"/><feComposite in2="hardAlpha" operator="arithmetic" k2="-1" k3="1"/><feColorMatrix values="0 0 0 0 0.0666667 0 0 0 0 0.0666667 0 0 0 0 0.0666667 0 0 0 0.3 0"/><feBlend mode="hard-light" in2="shape" result="effect2_innerShadow_102_79"/></filter><filter id="ay" x="1091.64" y="583.282" width="41.723" height="41.192" filterUnits="userSpaceOnUse" color-interpolation-filters="sRGB"><feFlood flood-opacity="0" result="BackgroundImageFix"/><feColorMatrix in="SourceAlpha" values="0 0 0 0 0 0 0 0 0 0 0 0 0 0 0 0 0 0 127 0" result="hardAlpha"/><feOffset dx="3" dy="6"/><feGaussianBlur stdDeviation="6"/><feColorMatrix values="0 0 0 0 0 0 0 0 0 0 0 0 0 0 0 0 0 0 0.35 0"/><feBlend in2="BackgroundImageFix" result="effect1_dropShadow_102_79"/><feBlend in="SourceGraphic" in2="effect1_dropShadow_102_79" result="shape"/></filter><filter id="az" x="1133.09" y="604.552" width="66.352" height="33.427" filterUnits="userSpaceOnUse" color-interpolation-filters="sRGB"><feFlood flood-opacity="0" result="BackgroundImageFix"/><feColorMatrix in="SourceAlpha" values="0 0 0 0 0 0 0 0 0 0 0 0 0 0 0 0 0 0 127 0" result="hardAlpha"/><feOffset dx="3" dy="6"/><feGaussianBlur stdDeviation="6"/><feColorMatrix values="0 0 0 0 0 0 0 0 0 0 0 0 0 0 0 0 0 0 0.35 0"/><feBlend in2="BackgroundImageFix" result="effect1_dropShadow_102_79"/><feBlend in="SourceGraphic" in2="effect1_dropShadow_102_79" result="shape"/></filter><filter id="aA" x="1052.98" y="584.867" width="59.106" height="43.873" filterUnits="userSpaceOnUse" color-interpolation-filters="sRGB"><feFlood flood-opacity="0" result="BackgroundImageFix"/><feColorMatrix in="SourceAlpha" values="0 0 0 0 0 0 0 0 0 0 0 0 0 0 0 0 0 0 127 0" result="hardAlpha"/><feOffset dx="3" dy="6"/><feGaussianBlur stdDeviation="6"/><feColorMatrix values="0 0 0 0 0 0 0 0 0 0 0 0 0 0 0 0 0 0 0.35 0"/><feBlend in2="BackgroundImageFix" result="effect1_dropShadow_102_79"/><feBlend in="SourceGraphic" in2="effect1_dropShadow_102_79" result="shape"/></filter><filter id="aB" x="444" y="111" width="397" height="327" filterUnits="userSpaceOnUse" color-interpolation-filters="sRGB"><feFlood flood-opacity="0" result="BackgroundImageFix"/><feColorMatrix in="SourceAlpha" values="0 0 0 0 0 0 0 0 0 0 0 0 0 0 0 0 0 0 127 0" result="hardAlpha"/><feOffset dx="-2" dy="4"/><feGaussianBlur stdDeviation="2"/><feColorMatrix values="0 0 0 0 0 0 0 0 0 0 0 0 0 0 0 0 0 0 0.32 0"/><feBlend in2="BackgroundImageFix" result="effect1_dropShadow_102_79"/><feBlend in="SourceGraphic" in2="effect1_dropShadow_102_79" result="shape"/></filter><clipPath id="a"><path fill="#fff" d="M0 0h1280v647H0z"/></clipPath></defs></svg>